# Blender 3.6.1
# www.blender.org
mtllib level 11 area 2.mtl
o lvl_2_underground
v 4.595740 1.163710 0.790061
v 5.089590 1.163711 -4.661490
v 4.546040 1.163711 -4.969990
v 4.804800 1.163710 0.201063
v 4.804800 0.410449 0.201063
v 4.595740 0.410449 0.790061
v 5.419420 0.410449 0.087617
v 5.419420 1.163710 0.087617
v 5.824980 0.410449 0.563168
v 5.824980 1.163710 0.563168
v 5.615920 0.410449 1.152170
v 5.615920 1.163710 1.152170
v 5.001300 0.410449 1.265610
v 5.001300 1.163710 1.265610
v 4.080560 1.163710 1.623400
v 4.080560 1.163712 -10.927100
v 4.541430 1.163711 -5.594970
v 4.546040 0.410450 -4.969990
v 4.541430 0.410450 -5.594970
v 5.623940 1.163711 -5.602950
v 5.080380 1.163711 -5.911450
v 5.628540 1.163711 -4.977960
v 6.257470 1.163712 -13.236900
v 0.267511 1.163712 -10.927100
v -0.325873 1.163712 -13.236900
v -0.742820 1.163712 -13.236900
v -1.335180 1.163712 -10.927100
v -4.297530 1.163712 -10.927100
v -6.349500 1.163712 -13.236900
v -6.349500 1.163712 -10.927100
v -6.349500 7.919162 -13.236899
v -6.349500 7.919159 1.623401
v -1.014498 -1.341610 1.623400
v -6.349500 -1.341610 1.609160
v -6.349500 -1.341610 -0.834608
v -1.839810 3.349820 1.623401
v 6.257470 -1.341610 1.623400
v 4.080560 0.410449 1.623400
v 6.257470 1.163710 1.623400
v -0.048252 3.349820 1.623401
v 6.257470 7.919159 1.623401
v -0.048252 3.913110 1.623401
v -0.048252 3.349820 0.252790
v -0.048252 3.913110 0.252790
v -1.839810 3.349820 0.252790
v -1.839810 3.913110 1.623401
v -1.839810 3.913110 0.252790
v 6.257470 1.163712 -10.927100
v 6.257470 7.919162 -13.236899
v 5.623940 0.410450 -5.602950
v 5.628540 0.410450 -4.977960
v 5.080380 0.410450 -5.911450
v 6.257470 0.410451 -10.927100
v 4.080560 0.410451 -10.927100
v 6.257470 0.410449 1.623400
v 5.089590 0.410450 -4.661490
v 6.257470 -6.233859 -10.927101
v 6.257470 -6.233860 -0.834609
v 6.257470 -1.341610 -0.834608
v 0.922468 -1.341610 1.609160
v 0.267511 -5.089078 -10.927101
v 0.267511 -5.089079 -9.558521
v -1.335180 -5.089079 -9.558521
v -1.335180 -5.089078 -10.927101
v -4.297530 -6.233859 -10.927101
v -4.297530 -6.233860 -0.834609
v -4.297530 -2.502668 -10.927100
v 0.267511 1.696942 -12.865800
v -1.383700 1.696942 -12.865800
v 0.079179 1.544622 -12.865800
v 0.888822 1.861552 -12.865800
v 0.187821 1.294582 -12.865800
v -0.711159 1.433482 -12.865800
v -1.862690 2.289152 -12.865800
v -1.981260 3.040652 -12.865799
v -0.365165 4.347752 -12.865799
v -1.116660 4.229182 -12.865799
v 0.344933 4.074682 -12.865799
v 0.668867 2.021562 -12.865800
v 1.212420 2.703062 -12.865800
v 0.888822 1.861552 -13.236900
v 1.212420 2.703062 -13.236900
v -1.544260 1.477672 -13.236900
v -2.111230 2.178672 -13.236900
v -2.251740 3.069242 -13.236899
v -1.928150 3.910752 -13.236899
v -1.227140 4.477722 -13.236899
v -0.336573 4.618232 -13.236899
v 0.504939 4.294642 -13.236899
v 1.071910 3.593632 -13.236899
v 0.187821 1.294582 -13.236900
v -1.443101 6.888780 -13.236899
v -1.544260 1.477672 -12.865800
v -2.111230 2.178672 -12.865800
v -0.742820 1.163712 -12.865800
v -2.251740 3.069242 -12.865799
v -1.708190 3.750752 -12.865799
v -1.928150 3.910752 -12.865799
v -1.227140 4.477722 -12.865799
v -0.336573 4.618232 -12.865799
v 0.504939 4.294642 -12.865799
v 1.071910 3.593632 -12.865799
v 0.823364 3.483152 -12.865799
v 0.941932 2.731662 -12.865800
v -0.702750 1.154072 -13.236900
v -1.335180 0.866236 -10.701400
v 0.267511 0.866236 -10.701400
v -1.335180 -0.547513 -10.024200
v 0.267511 -0.547513 -10.024200
v 0.267511 -2.024888 -9.715110
v -1.335180 -2.031998 -9.715110
v 6.257470 -4.062498 -10.927101
v -4.297530 -4.062498 -10.927101
v 6.257470 -4.062500 -0.834609
v -4.297530 -4.062500 -0.834609
v -4.297530 -2.502670 -0.834608
v -4.297530 -1.341610 -0.834608
v -0.958781 1.127521 -16.135717
v 0.672861 1.825361 -16.135717
v 0.996459 2.666870 -16.135717
v -1.760221 1.441481 -16.135717
v -2.327191 2.142480 -16.135717
v -2.467701 3.033051 -16.135717
v -2.144111 3.874560 -16.135717
v -1.443101 4.441531 -16.135717
v -0.552534 4.582041 -16.135717
v 0.288978 4.258451 -16.135717
v 0.855949 3.557441 -16.135717
v -0.028140 1.258391 -16.135717
v 0.267511 1.696942 -17.455286
v -1.383700 1.696942 -17.455286
v 0.288978 6.888780 -13.236899
v -1.443101 5.549211 -13.236899
v 0.288978 5.549211 -13.236899
v -1.443101 5.549211 -14.932013
v 0.288978 5.549211 -14.932013
v -1.443101 6.888780 -14.932013
v 0.288978 6.888780 -14.932013
v -1.443101 5.549211 -16.135717
v 0.288978 5.549211 -16.135717
v -1.443101 6.888780 -16.135715
v 0.288978 6.888780 -16.135715
v -1.353439 4.441530 -14.932013
v 0.378640 4.258451 -14.932013
v -1.443101 4.441531 -16.135717
v 0.288978 4.258451 -16.135717
v -0.552534 4.582040 -14.932013
v -0.552534 4.582041 -16.135717
v 0.922468 0.310473 1.609160
v -1.014498 0.310473 1.623400
v -0.046015 1.333081 1.616280
v -1.014498 -1.341610 3.260884
v 0.922468 -1.341610 3.246643
v 0.922468 0.310473 3.246644
v -1.014498 0.310473 3.260883
v -0.046015 1.333081 3.253763
v -1.014498 0.310473 1.623400
vn -0.1672 0.9854 0.0309
vn 0.0016 0.9808 0.1950
vn -0.1971 0.9735 0.1158
vn 0.6427 0.1379 0.7536
vn 0.9424 -0.0000 0.3345
vn 0.1815 -0.0000 0.9834
vn 0.0764 0.9735 -0.2155
vn -0.7609 -0.0000 0.6489
vn 0.1917 0.9808 -0.0355
vn -0.9424 -0.0000 -0.3345
vn -0.6427 0.1380 -0.7536
vn -0.1815 -0.0000 -0.9834
vn -0.0760 0.9735 0.2156
vn 0.7609 -0.0000 -0.6489
vn -0.0000 1.0000 -0.0000
vn -0.1990 0.9735 -0.1127
vn 1.0000 -0.0000 -0.0074
vn 0.0073 0.1379 0.9904
vn -0.8541 0.1379 0.5015
vn 0.0027 0.0015 -1.0000
vn 0.7084 0.0011 -0.7058
vn 0.9488 0.0005 -0.3157
vn 1.0000 -0.0000 -0.0000
vn -0.0000 -1.0000 -0.0000
vn -1.0000 -0.0000 -0.0000
vn -0.0000 -0.0000 -1.0000
vn -0.0000 -0.0000 -0.0000
vn 0.1697 0.9808 0.0961
vn -1.0000 -0.0000 0.0074
vn -0.4936 -0.0000 0.8697
vn 0.5064 -0.0000 0.8623
vn 0.4936 -0.0000 -0.8697
vn -0.5064 -0.0000 -0.8623
vn -0.0000 0.9642 0.2652
vn -0.0000 -0.0000 1.0000
vn 0.9334 -0.3589 -0.0000
vn -0.7775 -0.6289 -0.0000
vn -0.3648 -0.9311 -0.0000
vn 0.1393 -0.9903 -0.0000
vn 0.6289 -0.7775 -0.0000
vn -0.9334 0.3589 -0.0000
vn -0.9878 -0.1558 -0.0000
vn -0.6289 0.7775 -0.0000
vn 0.9878 0.1558 -0.0000
vn 0.7775 0.6289 -0.0000
vn 0.3589 0.9334 -0.0000
vn -0.1558 0.9878 -0.0000
vn -0.0000 0.6044 0.7967
vn -0.0000 0.4320 0.9019
vn -0.0005 0.2043 0.9789
vn -0.0004 0.2043 0.9789
vn -0.0000 0.2048 0.9788
vn -0.0009 0.2038 0.9790
vn -0.0002 0.0511 0.9987
vn -0.0001 0.0511 0.9987
vn -0.0002 0.0510 0.9987
vn -0.4744 0.1816 0.8613
vn 0.6585 -0.0000 -0.7526
vn -0.0000 0.6657 -0.7462
vn -0.6657 -0.0000 0.7462
vn -0.0000 0.6585 0.7526
vn -0.0000 0.9705 0.2409
vn -0.9126 -0.4023 0.0730
vn -0.9101 -0.4080 0.0727
vn -0.9770 0.1014 -0.1874
vn -0.9394 0.1013 0.3277
vn 0.5829 0.8108 -0.0536
vn 0.9528 0.2504 0.1720
vn 0.9126 0.4023 -0.0730
vn 0.9101 0.4080 -0.0729
vn -0.7656 0.5639 0.3096
vn -0.7941 0.5713 -0.2075
vn -0.3870 0.9219 0.0173
vn -0.4098 0.9120 0.0191
vn -0.5274 0.7831 0.3296
vn 0.1049 0.9943 -0.0202
vn 0.9922 -0.1016 -0.0726
vn 0.9915 -0.1082 -0.0725
vn 0.8126 -0.5803 -0.0533
vn 0.8023 -0.5947 -0.0523
vn -0.9987 -0.0347 0.0372
vn 0.9985 0.0404 -0.0372
vn -0.7758 -0.6275 0.0656
vn 0.6284 -0.7770 -0.0371
vn 0.1639 -0.9865 0.0045
vn -0.3424 -0.9380 0.0546
vn -0.7261 -0.6876 -0.0000
vn 0.7261 -0.6876 -0.0000
vn -0.0042 -0.0030 -1.0000
vn -0.0000 0.0011 -1.0000
vn -0.0031 0.0040 -1.0000
vn 0.0027 -0.0000 -1.0000
vn -0.0074 -0.0000 -1.0000
vt -0.809109 0.139095
vt -0.896055 -0.820685
vt -0.800359 -0.874998
vt -0.845915 0.035398
vt 0.410449 0.201063
vt 1.163710 0.201063
vt 1.163710 0.790061
vt 0.410449 0.790061
vt 5.419420 0.410449
vt 5.419420 1.163710
vt 4.804800 1.163710
vt 4.804800 0.410449
vt -0.410449 0.563168
vt -1.163710 0.563168
vt -1.163710 0.087617
vt -0.410449 0.087617
vt -0.410449 1.152170
vt -1.163710 1.152170
vt -5.001300 0.410449
vt -5.001300 1.163710
vt -5.615920 1.163710
vt -5.615920 0.410449
vt 0.072262 0.139095
vt 0.204879 0.139095
vt 0.204879 0.222819
vt 0.072262 0.222819
vt -0.718409 0.285810
vt -0.880511 0.222819
vt -0.718409 -1.923785
vt -0.799548 -0.985030
vt 1.163710 -5.594970
vt 1.163710 -4.969990
vt 0.410449 -4.969990
vt 0.410449 -5.594970
vt -1.101667 -2.330440
vt -0.894433 -1.040748
vt -0.990130 -0.986435
vt -0.047097 -1.923785
vt 0.057372 -2.330440
vt 0.130778 -2.330440
vt 0.235067 -1.923785
vt 0.756607 -1.923785
vt 1.117870 -2.330440
vt 1.117870 -1.923785
vt 1.014498 -1.341610
vt 6.349500 -1.341610
vt 6.349500 7.919160
vt 3.913110 1.623400
vt 3.349820 1.623400
vt 3.349820 0.252789
vt 3.913110 0.252789
vt -0.048252 1.623400
vt -1.839810 1.623400
vt -1.839810 0.252789
vt -0.048252 0.252789
vt -3.349820 1.623400
vt -3.913110 1.623400
vt -3.913110 0.252789
vt -3.349820 0.252789
vt 1.839810 1.623400
vt 0.048252 1.623400
vt 0.048252 0.252789
vt 1.839810 0.252789
vt 0.048252 3.913110
vt 0.048252 3.349820
vt 1.839810 3.349820
vt 1.839810 3.913110
vt -1.163710 -13.236900
vt -1.163710 -10.927100
vt -1.163710 1.623400
vt -7.919160 1.623400
vt -7.919160 -13.236900
vt 1.163710 -13.236900
vt 1.163710 1.623400
vt 1.163710 -10.927100
vt -1.025525 0.099149
vt -1.101667 0.285810
vt -0.990940 -0.876401
vt -1.163710 -4.977960
vt -1.163710 -5.602950
vt -0.410449 -5.602950
vt -0.410449 -4.977960
vt 5.623940 1.163710
vt 5.080380 1.163710
vt 5.080380 0.410449
vt 5.623940 0.410449
vt 4.541430 1.163710
vt 4.541430 0.410449
vt 4.541430 -5.594970
vt 6.257470 -10.927100
vt 5.080380 -5.911450
vt 4.080560 -10.927100
vt 4.080560 1.623400
vt 4.546040 -4.969990
vt 4.595740 0.790061
vt 5.001300 1.265610
vt 6.257470 1.623400
vt 5.615920 1.152170
vt 5.824980 0.563168
vt 5.628540 -4.977960
vt 5.623940 -5.602950
vt 5.419420 0.087617
vt 5.089590 -4.661490
vt 4.804800 0.201063
vt -4.546040 1.163710
vt -5.089590 1.163710
vt -5.089590 0.410449
vt -4.546040 0.410449
vt -5.628540 1.163710
vt -5.628540 0.410449
vt -0.954123 0.015425
vt -0.988718 0.202847
vt -6.257470 1.163710
vt -6.257470 0.410449
vt -4.080560 0.410449
vt -4.080560 1.163710
vt 1.341610 1.609160
vt 1.341610 3.246644
vt -0.310473 3.246644
vt -0.310473 1.609160
vt -1.117405 0.289893
vt -1.117405 -0.149037
vt 1.133839 -0.149037
vt 1.133839 0.287350
vt 0.000000 0.000000
vt -0.267511 -10.927100
vt -0.267511 -12.865800
vt 1.383700 -12.865800
vt 1.335180 -10.927100
vt 0.079179 1.544620
vt 0.888822 1.861550
vt 0.267511 1.696940
vt 0.187821 1.294580
vt -0.711159 1.433480
vt 0.668867 2.021560
vt 1.212420 2.703060
vt 1.861550 -13.236900
vt 2.703060 -13.236900
vt 2.703060 -12.865800
vt 1.861550 -12.865800
vt -6.888778 -13.236900
vt -6.888777 -14.932014
vt -5.549208 -14.932014
vt -5.549209 -13.236900
vt -2.178670 -13.236900
vt -1.477670 -13.236900
vt -1.477670 -12.865800
vt -2.178670 -12.865800
vt -1.544260 -13.236900
vt -0.742820 -13.236900
vt -0.742820 -12.865800
vt -1.544260 -12.865800
vt 0.187821 -13.236900
vt 0.187821 -12.865800
vt 0.888822 -13.236900
vt 0.888822 -12.865800
vt -1.544260 1.477670
vt -0.742820 1.163710
vt -1.383700 1.696940
vt -2.111230 2.178670
vt -1.862690 2.289150
vt -2.251740 3.069240
vt -1.981260 3.040650
vt -1.708190 3.750750
vt -1.928150 3.910750
vt -1.116660 4.229180
vt -3.910750 -13.236900
vt -3.069240 -13.236900
vt -3.069240 -12.865800
vt -3.910750 -12.865800
vt 1.227140 -13.236900
vt 1.928150 -13.236900
vt 1.928150 -12.865800
vt 1.227140 -12.865800
vt -1.227140 4.477720
vt -0.365165 4.347750
vt -0.336573 4.618230
vt 0.504939 4.294640
vt 0.344933 4.074680
vt 1.071910 3.593630
vt 0.823364 3.483150
vt 0.941932 2.731660
vt 3.593630 -13.236900
vt 3.593630 -12.865800
vt 4.294640 -13.236900
vt 4.294640 -12.865800
vt -0.504939 -13.236900
vt 0.336573 -13.236900
vt 0.336573 -12.865800
vt -0.504939 -12.865800
vt -0.325873 1.163710
vt -0.702750 1.154070
vt -1.335180 1.163710
vt -1.335180 0.866234
vt 0.267511 0.866234
vt 0.267511 1.163710
vt -1.335180 -0.547515
vt 0.267511 -0.547515
vt 0.267511 -2.024890
vt -1.335180 -2.032000
vt 0.267511 -3.282590
vt -1.335180 -3.282590
vt 6.257470 1.163710
vt -4.297530 1.163710
vt -4.297530 -6.233860
vt 6.257470 -6.233860
vt -4.062500 -0.834608
vt -6.233860 -0.834608
vt -6.233860 -10.927100
vt -4.062500 -10.927100
vt 4.297530 -4.062500
vt 4.297530 -3.282590
vt -6.257470 -3.282590
vt -6.257470 -4.062500
vt -3.282590 -10.927100
vt -3.282590 -0.834608
vt -2.502670 -0.834608
vt -2.502670 -10.927100
vt -6.257470 -1.341610
vt -6.257470 -6.233860
vt 4.297530 -6.233860
vt 4.297530 -2.502670
vt 4.297530 -1.341610
vt -1.341610 -0.834608
vt 1.117870 -0.146938
vt 0.756607 -0.146938
vt -0.410449 -10.927100
vt 3.282590 -10.927100
vt 3.282590 -0.834608
vt 1.341610 1.623400
vt -0.410449 1.623400
vt -6.257470 1.623400
vt -6.257470 1.609160
vt 6.349500 1.609160
vt 6.349500 1.623400
vt -3.593630 -13.236900
vt -3.557438 -16.135717
vt -2.666868 -16.135717
vt -2.703060 -13.236900
vt 1.477670 -13.236900
vt 1.441478 -16.135717
vt 2.142478 -16.135717
vt 2.178670 -13.236900
vt -0.888822 -13.236900
vt -0.672861 -16.135717
vt 0.028140 -16.135717
vt -0.187821 -13.236900
vt -0.028140 -16.135717
vt -0.958781 -16.135717
vt 3.033048 -16.135717
vt 3.069240 -13.236900
vt 3.874558 -16.135717
vt 3.910750 -13.236900
vt -1.861550 -13.236900
vt -1.825358 -16.135717
vt 0.742820 -13.236900
vt 0.958781 -16.135717
vt 1.760221 -16.135717
vt 1.544260 -13.236900
vt 0.996459 2.666868
vt 0.855949 3.557438
vt 0.288978 4.258448
vt -0.552534 4.582038
vt -1.443101 4.441528
vt -2.144111 3.874558
vt -2.467701 3.033048
vt -2.327191 2.142478
vt -1.760221 1.441478
vt -0.958781 1.127518
vt -0.028140 1.258388
vt 0.672861 1.825358
vt 1.383700 1.696940
vt -0.267511 1.696940
vt -0.079179 1.544620
vt 0.711159 1.433480
vt 0.267511 -12.865800
vt -1.383700 -12.865800
vt -1.383700 -17.455286
vt 0.267511 -17.455286
vt -1.443101 5.549209
vt -1.443101 6.888778
vt -6.349500 7.919160
vt -6.349500 1.163710
vt 1.544260 1.477670
vt 6.349500 1.163710
vt 0.742820 1.163710
vt -0.888822 1.861550
vt -0.187821 1.294580
vt 0.702750 1.154070
vt 6.257470 7.919160
vt 0.288978 5.549209
vt 0.288978 6.888778
vt 5.549208 -14.932014
vt 5.549208 -16.135717
vt 6.888777 -16.135717
vt 6.888777 -14.932014
vt 0.288978 -13.236900
vt 0.288978 -14.932014
vt -1.443101 -14.932014
vt -1.443101 -13.236900
vt 5.549209 -13.236900
vt 6.888778 -13.236900
vt -1.443101 6.888777
vt -1.443101 5.549208
vt 0.288978 5.549208
vt 0.288978 6.888777
vt -1.443101 -16.135717
vt 0.288978 -16.135717
vt -6.888777 -16.135717
vt -5.549208 -16.135717
vt -4.258448 -16.135717
vt -4.258448 -14.932014
vt 4.441528 -14.932014
vt 4.441528 -16.135717
vt -0.288978 5.549208
vt -0.378640 4.258448
vt 0.552534 4.582038
vt 1.353439 4.441528
vt 1.443101 5.549208
vt -4.294640 -13.236900
vt -2.144111 -16.135717
vt -1.227140 -13.236900
vt -1.928150 -13.236900
vt -1.353439 -14.932014
vt -0.552534 -14.932014
vt -0.336573 -13.236900
vt 0.378640 -14.932014
vt 0.504939 -13.236900
vt -1.333081 3.253763
vt -1.333081 1.616280
vt 0.310473 1.623400
vt 1.333081 1.616280
vt 1.333081 3.253763
vt 0.310473 3.260883
vt -1.341610 1.623400
vt -1.341610 3.260884
vt -0.164726 0.287350
vt 0.181160 0.289893
vt 0.181160 0.582301
vt -0.164726 0.579758
vt 0.046015 1.333081
vt 1.014498 0.310473
vt -6.257470 7.919160
vt -0.922468 0.310473
vt -0.922468 -1.341610
vt -1.341610 1.609160
vt 7.919160 -13.236900
vt 7.919160 1.623400
vt 0.448408 0.437040
vt 0.562805 0.436243
vt 0.747621 0.436243
vt 0.597537 0.073047
vt 0.632269 0.437836
s 1
usemtl floor
f 1/1/1 2/2/2 3/3/3
f 2/2/2 1/1/1 4/4/4
f 1/1/1 15/27/15 14/28/13
f 15/27/15 1/1/1 16/29/15
f 16/29/15 1/1/1 3/3/3
f 16/29/15 3/3/3 17/30/16
f 23/35/15 21/36/18 20/37/19
f 23/35/15 17/30/16 21/36/18
f 23/35/15 16/29/15 17/30/16
f 23/35/15 24/38/15 16/29/15
f 25/39/15 24/38/15 23/35/15
f 26/40/15 24/38/15 25/39/15
f 26/40/15 27/41/15 24/38/15
f 26/40/15 28/42/15 27/41/15
f 29/43/15 28/42/15 26/40/15
f 28/42/15 29/43/15 30/44/15
f 46/60/15 42/61/15 44/62/15 47/63/15
f 23/73/15 39/74/15 48/75/27
f 23/35/15 10/76/9 39/77/15
f 23/35/15 22/78/28 10/76/9
f 23/35/15 20/37/19 22/78/28
f 13/96/24 38/93/24 6/95/24
f 38/93/24 13/96/24 55/97/24
f 55/97/24 13/96/24 11/98/24
f 55/97/24 11/98/24 9/99/24
f 2/2/2 8/111/7 22/78/28
f 2/2/2 4/4/4 8/111/7
f 12/112/11 39/77/15 10/76/9
f 14/28/13 39/77/15 12/112/11
f 14/28/13 15/27/15 39/77/15
f 39/113/26 55/114/26 38/115/26 15/116/26
f 37/121/15 59/122/15 35/123/15 34/124/15
f 25/191/35 26/158/35 105/192/35
f 114/207/23 58/208/23 57/209/23 112/210/23
f 115/211/35 66/212/58 58/213/59 114/214/35
f 113/210/25 65/215/25 66/216/25 115/207/25
f 30/44/62 35/225/62 117/226/62 28/42/62
f 37/232/15 60/233/15 34/234/15 33/235/15
f 22/78/28 8/111/7 10/76/9
f 90/236/63 128/237/64 120/238/65 82/239/66
f 83/240/67 121/241/68 122/242/69 84/243/70
f 81/244/71 119/245/72 129/246/73 91/247/74
f 91/153/74 129/248/73 118/249/75 26/150/76
f 84/243/70 122/242/69 123/250/77 85/251/78
f 85/251/78 123/250/77 124/252/79 86/253/80
f 81/254/71 82/239/66 120/238/65 119/255/72
f 26/256/76 118/257/75 121/258/68 83/259/67
f 120/260/35 128/261/35 127/262/35 126/263/35 125/264/35 124/265/35 123/266/35 122/267/35 121/268/68 118/269/75 129/270/35 119/271/35
f 69/272/26 68/273/26 70/274/26 73/275/26
s 0
f 134/297/15 136/298/15 135/299/15 133/300/15
f 92/300/24 137/299/24 138/298/24 132/297/24
f 141/303/35 139/304/35 140/305/35 142/306/35
f 137/299/24 141/307/24 142/308/24 138/298/24
f 139/304/35 145/264/35 148/263/35 146/262/35 140/305/35
f 146/311/83 128/237/83 90/236/83 89/320/83
f 124/321/84 145/307/84 87/322/84 86/323/84
f 87/322/85 143/324/85 147/325/85 88/326/85
f 147/325/86 144/327/86 89/328/86 88/326/86
f 60/337/15 33/338/15 152/339/15 153/340/15
f 156/349/93 154/350/93 153/351/93 152/352/93 155/353/93
s 1
usemtl wall
f 5/5/5 4/6/4 1/7/1 6/8/5
f 7/9/6 8/10/7 4/11/4 5/12/6
f 9/13/8 10/14/9 8/15/7 7/16/8
f 11/17/10 12/18/11 10/14/9 9/13/10
f 13/19/12 14/20/13 12/21/11 11/22/12
f 6/23/14 1/24/1 14/25/13 13/26/14
f 17/31/16 3/32/3 18/33/17 19/34/17
f 33/45/20 34/46/21 32/47/22
f 42/48/23 40/49/23 43/50/23 44/51/23
f 40/52/24 36/53/24 45/54/24 43/55/24
f 36/56/25 46/57/25 47/58/25 45/59/25
f 44/64/26 43/65/26 45/66/26 47/67/26
f 23/68/25 48/69/25 39/70/25 41/71/25 49/72/25
f 22/79/28 20/80/19 50/81/29 51/82/29
f 20/83/19 21/84/18 52/85/30 50/86/30
f 21/84/18 17/87/16 19/88/31 52/85/31
f 19/89/24 53/90/24 52/91/24
f 19/89/24 54/92/24 53/90/24
f 54/92/24 19/89/24 38/93/24
f 18/94/24 38/93/24 19/89/24
f 6/95/24 38/93/24 18/94/24
f 55/97/24 9/99/24 53/90/24
f 51/100/24 53/90/24 9/99/24
f 50/101/24 53/90/24 51/100/24
f 52/91/24 53/90/24 50/101/24
f 7/102/24 51/100/24 9/99/24
f 7/102/24 56/103/24 51/100/24
f 5/104/24 56/103/24 7/102/24
f 6/95/24 56/103/24 5/104/24
f 56/103/24 6/95/24 18/94/24
f 3/105/3 2/106/2 56/107/32 18/108/32
f 2/106/2 22/109/28 51/110/33 56/107/33
s 0
f 60/117/25 153/118/25 154/119/25 149/120/25
s 1
f 70/130/35 71/131/35 68/132/35
f 70/130/35 72/133/35 71/131/35
f 72/133/35 70/130/35 73/134/35
f 68/132/35 71/131/35 79/135/35
f 79/135/35 71/131/35 80/136/35
f 81/137/36 82/138/36 80/139/36 71/140/36
s 0
f 132/141/25 138/142/25 136/143/25 134/144/25
s 1
f 84/145/37 83/146/37 93/147/37 94/148/37
f 83/149/38 26/150/38 95/151/38 93/152/38
f 26/150/39 91/153/39 72/154/39 95/151/39
f 91/153/40 81/155/40 71/156/40 72/154/40
f 72/133/35 93/157/35 95/158/35
f 93/157/35 72/133/35 73/134/35
f 93/157/35 73/134/35 69/159/35
f 93/157/35 69/159/35 94/160/35
f 94/160/35 69/159/35 74/161/35
f 94/160/35 74/161/35 96/162/35
f 96/162/35 74/161/35 75/163/35
f 96/162/35 75/163/35 97/164/35
f 98/165/35 97/164/35 77/166/35
f 96/162/35 97/164/35 98/165/35
f 86/167/41 85/168/41 96/169/41 98/170/41
f 85/168/42 84/145/42 94/148/42 96/169/42
f 87/171/43 86/172/43 98/173/43 99/174/43
f 98/165/35 77/166/35 99/175/35
f 99/175/35 77/166/35 76/176/35
f 76/176/35 100/177/35 99/175/35
f 76/176/35 101/178/35 100/177/35
f 78/179/35 101/178/35 76/176/35
f 78/179/35 102/180/35 101/178/35
f 103/181/35 102/180/35 78/179/35
f 104/182/35 102/180/35 103/181/35
f 104/182/35 80/136/35 102/180/35
f 79/135/35 80/136/35 104/182/35
f 82/138/44 90/183/44 102/184/44 80/139/44
f 90/183/45 89/185/45 101/186/45 102/184/45
f 89/187/46 88/188/46 100/189/46 101/190/46
f 88/188/47 87/171/47 99/174/47 100/189/47
s 0
f 48/203/35 28/204/35 65/205/35 57/206/35
s 1
f 116/217/23 66/208/23 65/209/23 67/218/23
f 59/219/26 58/220/60 66/221/61 116/222/26 117/223/26
f 28/75/23 117/224/23 116/217/23 67/218/23
s 0
f 53/227/25 57/228/25 58/229/25 37/230/25 55/231/25
s 1
f 16/69/25 54/227/25 38/231/25 15/70/25
s 0
f 86/165/35 87/175/35 133/280/35 92/281/35 31/282/35
f 83/157/35 84/160/35 85/162/35 86/165/35 31/282/35 29/283/35
f 83/284/35 29/285/35 26/286/35
s 1
f 81/287/35 91/288/35 105/289/35 23/113/35
f 81/131/35 23/203/35 82/136/35
f 82/136/35 23/203/35 90/180/35
s 0
f 90/180/35 23/203/35 49/290/35 89/178/35
s 1
f 134/291/35 88/177/35 89/178/35
s 0
f 89/178/35 49/290/35 134/291/35
f 87/175/35 88/177/35 134/291/35 133/280/35
f 134/291/35 49/290/35 132/292/35
f 132/292/35 49/290/35 31/282/35 92/281/35
f 135/293/23 139/294/23 141/295/23 137/296/23
f 133/301/23 135/293/23 137/296/23 92/302/23
f 138/142/25 142/309/25 140/310/25 136/143/25
f 140/310/81 146/311/81 144/312/81 136/143/81
f 135/293/82 143/313/82 145/314/82 139/294/82
f 136/315/26 144/316/26 147/317/26 143/318/26 135/319/26
f 149/120/87 154/119/87 156/329/87 151/330/87
f 150/331/88 151/332/88 156/333/88 155/334/88
f 33/335/23 150/331/23 155/334/23 152/336/23
f 32/47/89 151/341/89 150/342/89
s 1
f 33/45/26 32/47/26 157/342/26
s 0
f 32/47/90 41/343/90 151/341/90
f 151/341/91 41/343/91 149/344/91
f 41/343/92 37/219/92 60/345/92 149/344/92
s 1
f 34/346/21 35/224/23 29/73/23 31/347/23 32/348/22
usemtl grille
f 77/166/35 97/164/35 75/163/35 74/161/35 69/159/35 73/134/35 70/130/35 68/132/35 79/135/35 104/182/35 103/181/35 78/179/35 76/176/35
usemtl water
f 24/126/34 68/127/34 69/128/34 27/129/34
f 27/193/48 106/194/48 107/195/48 24/196/48
f 107/195/49 106/194/49 108/197/49 109/198/49
f 108/197/50 110/199/51 109/198/52
f 110/199/51 108/197/50 111/200/53
f 111/200/54 62/201/55 110/199/56
f 62/201/55 111/200/54 63/202/57
f 68/276/24 69/277/24 131/278/24 130/279/24
s 0
usemtl Material
f 57/125/15 65/125/15 66/125/15 58/125/15
l 57 61
l 61 64
l 64 65
